<?xml version="1.0" encoding="utf-8"?>
<svg version="1.1" xmlns:xlink="http://www.w3.org/1999/xlink" width="27px" height="28px" xmlns="http://www.w3.org/2000/svg">
  <defs>
    <mask fill="white" id="clip3">
      <path d="M 26.999997252631 4.67817549042718  C 27.0006274331709 4.30979809225019  26.7414419875793 4.01130153867085  26.4220304807367 4.01130153867085  C 26.4220304807367 4.01130153867085  5.01453059317529 4.01130153867085  5.01453059317529 4.01130153867085  C 4.97284865307912 4.01130153867085  4.93530782716329 4.02934162615711  4.89587653231964 4.03929497003501  C 4.89587653231964 4.03929497003501  4.0251470249453 0.709590453555446  4.0251470249453 0.709590453555446  C 4.01533421421993 0.673613262679553  3.99444832710275 0.64696741231691  3.98058435572772 0.613685918000987  C 3.95681754765623 0.271228685947382  3.71446800912615 0  3.41126115024812 0  C 3.4107209955116 0  3.40955091578878 0  3.40892073524887 0  C 3.40892073524887 0  0.576259067398966 0.013893190848659  0.576259067398966 0.013893190848659  C 0.256307423510702 0.015966804092181  -0.00116636127572371 0.31581135388164  0 0.683566663721056  C 0.00117430927714151 1.0506998852229  0.25981843235835 1.34722650063971  0.578599739964064 1.34722650063971  C 0.579139894700584 1.34722650063971  0.58031023198925 1.34722650063971  0.580940412529163 1.34722650063971  C 0.580940412529163 1.34722650063971  2.98030781268316 1.33519962424257  2.98030781268316 1.33519962424257  C 2.98030781268316 1.33519962424257  8.51905427620868 22.5054436914179  8.51905427620868 22.5054436914179  C 7.96881665708734 23.0845002065694  7.61762601062479 23.9093838050491  7.61762601062479 24.8349411017291  C 7.61762601062479 26.5827897231947  8.84764837039297 28  10.365843298821 28  C 11.8834980258118 28  13.1140605870171 26.5826860994837  13.1140605870171 24.8349411017291  C 13.1140605870171 24.3791609101077  13.0272762216405 23.9486780299709  12.8768431284841 23.5575945557888  C 12.8768431284841 23.5575945557888  20.8728436714456 23.5575945557888  20.8728436714456 23.5575945557888  C 20.7224105782891 23.9487817031207  20.635624839228 24.3791609101077  20.635624839228 24.8349411017291  C 20.635624839228 26.5827897231947  21.865646512154 28  23.3838414405819 28  C 24.9014961675728 28  26.1320594156204 26.5826860994837  26.1320594156204 24.8349411017291  C 26.1320594156204 23.0871961039745  24.9014061912368 21.6698806214168  23.3838414405819 21.6698806214168  C 22.8075863654536 21.6698806214168  22.2735550899387 21.8757908229395  21.831528481466 22.2249873041179  C 21.831528481466 22.2249873041179  11.9176184604477 22.2249873041179  11.9176184604477 22.2249873041179  C 11.475591851975 21.8757908229395  10.9420983739493 21.6698806214168  10.365843298821 21.6698806214168  C 10.0794712656806 21.6698806214168  9.80867396029762 21.7344731589587  9.54885954167372 21.8277857545309  C 9.54885954167372 21.8277857545309  8.72260272718096 18.6707098371108  8.72260272718096 18.6707098371108  C 8.72260272718096 18.6707098371108  23.2993983058298 18.6573352592051  23.2993983058298 18.6573352592051  C 23.5545314007873 18.6573352592051  23.7645607665373 18.4634527251002  23.8409926590299 18.1988596645665  C 23.8607083064518 18.1568689953231  23.882043649997 18.1162267444507  23.8936569761195 18.0682225968396  C 23.8936569761195 18.0682225968396  26.9792024163823 4.96402268376145  26.9792024163823 4.96402268376145  C 26.9989180638041 4.88076711294171  27.0011679618474 4.79740836953995  26.9930656405481 4.71684849219025  C 26.9936057952846 4.70285160192744  26.999997252631 4.69155029544234  26.999997252631 4.67817549042718  Z M 21.793356536052 24.8344221921534  C 21.7934465618449 23.8235357133413  22.5068092110686 23.0019705455534  23.3844705880916 23.0019705455534  C 24.2621319651147 23.0019705455534  24.9755873875003 23.8235357133413  24.9755873875003 24.8344221921534  C 24.9755873875003 25.8452049483769  24.262222027306 26.6668738387534  23.3844705880916 26.6668738387534  C 22.5067191488773 26.6668738387534  21.793356536052 25.8453086709654  21.793356536052 24.8344221921534  Z M 8.77535770744875 24.8344221921534  C 8.77535770744875 23.8235357133413  9.48872238080081 23.0019705455534  10.3664738200152 23.0019705455534  C 11.2442252592295 23.0019705455534  11.9575899325816 23.8235357133413  11.9575899325816 24.8344221921534  C 11.9575899325816 25.8452049483769  11.2442252592295 26.6668738387534  10.3664738200152 26.6668738387534  C 9.48872238080081 26.6668738387534  8.77535770744875 25.8453086709654  8.77535770744875 24.8344221921534  Z M 25.691293506115 5.3446341563188  L 22.8701548620699 17.3253497498002  L 8.37501315175734 17.3387243277059  L 5.23734428268433 5.3446341563188  L 25.691293506115 5.3446341563188  Z " fill-rule="evenodd" />
    </mask>
  </defs>
  <g transform="matrix(1 0 0 1 -990 -31 )">
    <path d="M 26.999997252631 4.67817549042718  C 27.0006274331709 4.30979809225019  26.7414419875793 4.01130153867085  26.4220304807367 4.01130153867085  C 26.4220304807367 4.01130153867085  5.01453059317529 4.01130153867085  5.01453059317529 4.01130153867085  C 4.97284865307912 4.01130153867085  4.93530782716329 4.02934162615711  4.89587653231964 4.03929497003501  C 4.89587653231964 4.03929497003501  4.0251470249453 0.709590453555446  4.0251470249453 0.709590453555446  C 4.01533421421993 0.673613262679553  3.99444832710275 0.64696741231691  3.98058435572772 0.613685918000987  C 3.95681754765623 0.271228685947382  3.71446800912615 0  3.41126115024812 0  C 3.4107209955116 0  3.40955091578878 0  3.40892073524887 0  C 3.40892073524887 0  0.576259067398966 0.013893190848659  0.576259067398966 0.013893190848659  C 0.256307423510702 0.015966804092181  -0.00116636127572371 0.31581135388164  0 0.683566663721056  C 0.00117430927714151 1.0506998852229  0.25981843235835 1.34722650063971  0.578599739964064 1.34722650063971  C 0.579139894700584 1.34722650063971  0.58031023198925 1.34722650063971  0.580940412529163 1.34722650063971  C 0.580940412529163 1.34722650063971  2.98030781268316 1.33519962424257  2.98030781268316 1.33519962424257  C 2.98030781268316 1.33519962424257  8.51905427620868 22.5054436914179  8.51905427620868 22.5054436914179  C 7.96881665708734 23.0845002065694  7.61762601062479 23.9093838050491  7.61762601062479 24.8349411017291  C 7.61762601062479 26.5827897231947  8.84764837039297 28  10.365843298821 28  C 11.8834980258118 28  13.1140605870171 26.5826860994837  13.1140605870171 24.8349411017291  C 13.1140605870171 24.3791609101077  13.0272762216405 23.9486780299709  12.8768431284841 23.5575945557888  C 12.8768431284841 23.5575945557888  20.8728436714456 23.5575945557888  20.8728436714456 23.5575945557888  C 20.7224105782891 23.9487817031207  20.635624839228 24.3791609101077  20.635624839228 24.8349411017291  C 20.635624839228 26.5827897231947  21.865646512154 28  23.3838414405819 28  C 24.9014961675728 28  26.1320594156204 26.5826860994837  26.1320594156204 24.8349411017291  C 26.1320594156204 23.0871961039745  24.9014061912368 21.6698806214168  23.3838414405819 21.6698806214168  C 22.8075863654536 21.6698806214168  22.2735550899387 21.8757908229395  21.831528481466 22.2249873041179  C 21.831528481466 22.2249873041179  11.9176184604477 22.2249873041179  11.9176184604477 22.2249873041179  C 11.475591851975 21.8757908229395  10.9420983739493 21.6698806214168  10.365843298821 21.6698806214168  C 10.0794712656806 21.6698806214168  9.80867396029762 21.7344731589587  9.54885954167372 21.8277857545309  C 9.54885954167372 21.8277857545309  8.72260272718096 18.6707098371108  8.72260272718096 18.6707098371108  C 8.72260272718096 18.6707098371108  23.2993983058298 18.6573352592051  23.2993983058298 18.6573352592051  C 23.5545314007873 18.6573352592051  23.7645607665373 18.4634527251002  23.8409926590299 18.1988596645665  C 23.8607083064518 18.1568689953231  23.882043649997 18.1162267444507  23.8936569761195 18.0682225968396  C 23.8936569761195 18.0682225968396  26.9792024163823 4.96402268376145  26.9792024163823 4.96402268376145  C 26.9989180638041 4.88076711294171  27.0011679618474 4.79740836953995  26.9930656405481 4.71684849219025  C 26.9936057952846 4.70285160192744  26.999997252631 4.69155029544234  26.999997252631 4.67817549042718  Z M 21.793356536052 24.8344221921534  C 21.7934465618449 23.8235357133413  22.5068092110686 23.0019705455534  23.3844705880916 23.0019705455534  C 24.2621319651147 23.0019705455534  24.9755873875003 23.8235357133413  24.9755873875003 24.8344221921534  C 24.9755873875003 25.8452049483769  24.262222027306 26.6668738387534  23.3844705880916 26.6668738387534  C 22.5067191488773 26.6668738387534  21.793356536052 25.8453086709654  21.793356536052 24.8344221921534  Z M 8.77535770744875 24.8344221921534  C 8.77535770744875 23.8235357133413  9.48872238080081 23.0019705455534  10.3664738200152 23.0019705455534  C 11.2442252592295 23.0019705455534  11.9575899325816 23.8235357133413  11.9575899325816 24.8344221921534  C 11.9575899325816 25.8452049483769  11.2442252592295 26.6668738387534  10.3664738200152 26.6668738387534  C 9.48872238080081 26.6668738387534  8.77535770744875 25.8453086709654  8.77535770744875 24.8344221921534  Z M 25.691293506115 5.3446341563188  L 22.8701548620699 17.3253497498002  L 8.37501315175734 17.3387243277059  L 5.23734428268433 5.3446341563188  L 25.691293506115 5.3446341563188  Z " fill-rule="nonzero" fill="#717378" stroke="none" transform="matrix(1 0 0 1 990 31 )" />
    <path d="M 26.999997252631 4.67817549042718  C 27.0006274331709 4.30979809225019  26.7414419875793 4.01130153867085  26.4220304807367 4.01130153867085  C 26.4220304807367 4.01130153867085  5.01453059317529 4.01130153867085  5.01453059317529 4.01130153867085  C 4.97284865307912 4.01130153867085  4.93530782716329 4.02934162615711  4.89587653231964 4.03929497003501  C 4.89587653231964 4.03929497003501  4.0251470249453 0.709590453555446  4.0251470249453 0.709590453555446  C 4.01533421421993 0.673613262679553  3.99444832710275 0.64696741231691  3.98058435572772 0.613685918000987  C 3.95681754765623 0.271228685947382  3.71446800912615 0  3.41126115024812 0  C 3.4107209955116 0  3.40955091578878 0  3.40892073524887 0  C 3.40892073524887 0  0.576259067398966 0.013893190848659  0.576259067398966 0.013893190848659  C 0.256307423510702 0.015966804092181  -0.00116636127572371 0.31581135388164  0 0.683566663721056  C 0.00117430927714151 1.0506998852229  0.25981843235835 1.34722650063971  0.578599739964064 1.34722650063971  C 0.579139894700584 1.34722650063971  0.58031023198925 1.34722650063971  0.580940412529163 1.34722650063971  C 0.580940412529163 1.34722650063971  2.98030781268316 1.33519962424257  2.98030781268316 1.33519962424257  C 2.98030781268316 1.33519962424257  8.51905427620868 22.5054436914179  8.51905427620868 22.5054436914179  C 7.96881665708734 23.0845002065694  7.61762601062479 23.9093838050491  7.61762601062479 24.8349411017291  C 7.61762601062479 26.5827897231947  8.84764837039297 28  10.365843298821 28  C 11.8834980258118 28  13.1140605870171 26.5826860994837  13.1140605870171 24.8349411017291  C 13.1140605870171 24.3791609101077  13.0272762216405 23.9486780299709  12.8768431284841 23.5575945557888  C 12.8768431284841 23.5575945557888  20.8728436714456 23.5575945557888  20.8728436714456 23.5575945557888  C 20.7224105782891 23.9487817031207  20.635624839228 24.3791609101077  20.635624839228 24.8349411017291  C 20.635624839228 26.5827897231947  21.865646512154 28  23.3838414405819 28  C 24.9014961675728 28  26.1320594156204 26.5826860994837  26.1320594156204 24.8349411017291  C 26.1320594156204 23.0871961039745  24.9014061912368 21.6698806214168  23.3838414405819 21.6698806214168  C 22.8075863654536 21.6698806214168  22.2735550899387 21.8757908229395  21.831528481466 22.2249873041179  C 21.831528481466 22.2249873041179  11.9176184604477 22.2249873041179  11.9176184604477 22.2249873041179  C 11.475591851975 21.8757908229395  10.9420983739493 21.6698806214168  10.365843298821 21.6698806214168  C 10.0794712656806 21.6698806214168  9.80867396029762 21.7344731589587  9.54885954167372 21.8277857545309  C 9.54885954167372 21.8277857545309  8.72260272718096 18.6707098371108  8.72260272718096 18.6707098371108  C 8.72260272718096 18.6707098371108  23.2993983058298 18.6573352592051  23.2993983058298 18.6573352592051  C 23.5545314007873 18.6573352592051  23.7645607665373 18.4634527251002  23.8409926590299 18.1988596645665  C 23.8607083064518 18.1568689953231  23.882043649997 18.1162267444507  23.8936569761195 18.0682225968396  C 23.8936569761195 18.0682225968396  26.9792024163823 4.96402268376145  26.9792024163823 4.96402268376145  C 26.9989180638041 4.88076711294171  27.0011679618474 4.79740836953995  26.9930656405481 4.71684849219025  C 26.9936057952846 4.70285160192744  26.999997252631 4.69155029544234  26.999997252631 4.67817549042718  Z " stroke-width="40" stroke="#717378" fill="none" transform="matrix(1 0 0 1 990 31 )" mask="url(#clip3)" />
    <path d="M 21.793356536052 24.8344221921534  C 21.7934465618449 23.8235357133413  22.5068092110686 23.0019705455534  23.3844705880916 23.0019705455534  C 24.2621319651147 23.0019705455534  24.9755873875003 23.8235357133413  24.9755873875003 24.8344221921534  C 24.9755873875003 25.8452049483769  24.262222027306 26.6668738387534  23.3844705880916 26.6668738387534  C 22.5067191488773 26.6668738387534  21.793356536052 25.8453086709654  21.793356536052 24.8344221921534  Z " stroke-width="40" stroke="#717378" fill="none" transform="matrix(1 0 0 1 990 31 )" mask="url(#clip3)" />
    <path d="M 8.77535770744875 24.8344221921534  C 8.77535770744875 23.8235357133413  9.48872238080081 23.0019705455534  10.3664738200152 23.0019705455534  C 11.2442252592295 23.0019705455534  11.9575899325816 23.8235357133413  11.9575899325816 24.8344221921534  C 11.9575899325816 25.8452049483769  11.2442252592295 26.6668738387534  10.3664738200152 26.6668738387534  C 9.48872238080081 26.6668738387534  8.77535770744875 25.8453086709654  8.77535770744875 24.8344221921534  Z " stroke-width="40" stroke="#717378" fill="none" transform="matrix(1 0 0 1 990 31 )" mask="url(#clip3)" />
    <path d="M 25.691293506115 5.3446341563188  L 22.8701548620699 17.3253497498002  L 8.37501315175734 17.3387243277059  L 5.23734428268433 5.3446341563188  L 25.691293506115 5.3446341563188  Z " stroke-width="40" stroke="#717378" fill="none" transform="matrix(1 0 0 1 990 31 )" mask="url(#clip3)" />
  </g>
</svg>