<?xml version="1.0" encoding="utf-8"?>
<svg version="1.1" xmlns:xlink="http://www.w3.org/1999/xlink" width="20px" height="22px" xmlns="http://www.w3.org/2000/svg">
  <g transform="matrix(1 0 0 1 -652 -34 )">
    <path d="M 18.2190984570627 21.624659202877  C 18.2190984570627 21.624659202877  14.9341541529723 17.5184781463723  14.9341541529723 17.5184781463723  C 13.3499771452364 19.0633612369309  11.273419933798 19.9999670549415  8.99998369219874 19.9999670549415  C 4.02942976387353 19.9999670549415  0 15.5228216055427  0 9.99998352747076  C 0 4.4771449725624  4.02942976387353 0  8.99998369219874 0  C 13.970537620524 0  17.9999673843975 4.4771449725624  17.9999673843975 9.99998352747076  C 17.9999673843975 12.2268523034014  17.3448667953044 14.2837136536893  16.2371150488676 15.9456228805165  C 16.2371150488676 15.9456228805165  19.7808326877765 20.3752716125002  19.7808326877765 20.3752716125002  C 20.1258409127257 20.8065319647262  20.0559214532368 21.4358243698932  19.6246592647051 21.7808326516741  C 19.1933989835185 22.1258409334549  18.5641066820119 22.0559214624485  18.2190984570627 21.624659202877  Z M 8.99998369219874 1.99999670549415  C 12.6729706967885 1.99999670549415  15.9999710083533 5.37828894636935  15.9999710083533 9.99998352747076  C 15.9999710083533 14.6216781085722  12.6729706967885 17.9999703494474  8.99998369219874 17.9999703494474  C 5.3269962107727 17.9999703494474  1.99999637604416 14.6216781085722  1.99999637604416 9.99998352747076  C 1.99999637604416 5.37828894636935  5.3269962107727 1.99999670549415  8.99998369219874 1.99999670549415  Z " fill-rule="nonzero" fill="#717378" stroke="none" transform="matrix(1 0 0 1 652 34 )" />
  </g>
</svg>