<?xml version="1.0" encoding="utf-8"?>
<svg version="1.1" xmlns:xlink="http://www.w3.org/1999/xlink" width="56px" height="52px" xmlns="http://www.w3.org/2000/svg">
  <g>
    <path d="M 54.6451463898763 10.6563674019217  C 53.7762665008967 8.57104074889911  52.523425312214 6.6813374551528  50.9567594815798 5.09304259408853  C 49.3889169823278 3.50000985804494  47.5403878931664 2.23404991987775  45.5116915139053 1.36400268052072  C 43.4080585170927 0.458236003212619  41.1518028098463 -0.00538719324726273  38.8738967462205 4.7226927597893E-05  C 35.6781604765526 4.7226927597893E-05  32.5602099524839 0.907110954819476  29.8506404656442 2.62045367669193  C 29.2024180885401 3.03031212532036  28.5866068302912 3.48048493044045  28.0032066908975 3.97097129108606  C 27.4198065515038 3.48048493044045  26.8039952932549 3.03031212532036  26.1557729161508 2.62045367669193  C 23.446203429311 0.907110954819476  20.3282529052423 4.7226927597893E-05  17.1325166355745 4.7226927597893E-05  C 14.8313271968549 4.7226927597893E-05  12.6014426152603 0.45693888658824  10.494719889672 1.36400268052072  C 8.45930165029279 2.23747151912236  6.624832248905 3.49392277160274  5.04965192199746 5.09304259408853  C 3.48093220683255 6.67954585406513  2.2277970055436 8.56969563838294  1.36126699191863 10.6563674019217  C 0.460237912471638 12.8266014650317  0 15.1312150931558  0 17.5030188882507  C 0 19.7404428620223  0.440791414252564 22.0719320443164  1.31589162334311 24.4437358394113  C 2.04838292183461 26.4258382039305  3.0985029131022 28.4818494958083  4.44032328316314 30.5580177096228  C 6.56649263060917 33.8436044435019  9.4899752051606 37.2702942445027  13.1200205169436 40.7440126769726  C 19.1355243742915 46.50218781563  25.0926882115181 50.4798299052508  25.3454949447706 50.6410856972465  C 25.3454949447706 50.6410856972465  26.8817827697945 51.6623731594932  26.8817827697945 51.6623731594932  C 27.5624162657538 52.1125455481109  28.4375164748443 52.1125455481109  29.1181499708036 51.6623731594932  C 29.1181499708036 51.6623731594932  30.6544377958274 50.6410856972465  30.6544377958274 50.6410856972465  C 30.90724452908 50.4731109205923  36.8579242632287 46.50218781563  42.8799102454368 40.7440126769726  C 46.5099555572198 37.2702942445027  49.4334401099889 33.8436044435019  51.5596094574349 30.5580177096228  C 52.9014298274959 28.4818494958083  53.9580290999357 26.4258382039305  54.6840381499284 24.4437358394113  C 55.559138359019 22.0719320443164  55.9999327405981 19.7404428620223  55.9999327405981 17.5030188882507  C 56.0064149644657 15.1312150931558  55.5461754693233 12.8266014650317  54.6451463898763 10.6563674019217  Z " fill-rule="nonzero" fill="#ffffff" stroke="none" fill-opacity="0" />
  </g>
</svg>