<?xml version="1.0" encoding="utf-8"?>
<svg version="1.1" xmlns:xlink="http://www.w3.org/1999/xlink" width="38px" height="34px" xmlns="http://www.w3.org/2000/svg">
  <defs>
    <mask fill="white" id="clip4">
      <path d="M 37.0806370805054 6.96762470363342  C 36.4910399830578 5.6041419088226  35.6408982573758 4.36856684242327  34.5778035513041 3.33006638595738  C 33.5139104044275 2.28846809544514  32.259550965449 1.4607248994493  30.8829354762019 0.891847861181829  C 29.4554701127765 0.299615808368958  27.9244372407016 -0.0035223953986058  26.3787152956573 3.08791402614551E-05  C 24.2101799633662 3.08791402614551E-05  22.0944287326956 0.593111077534784  20.2557922402513 1.71337357747186  C 19.815927050871 1.98135795052519  19.3980550562462 2.27570167890529  19.002176381629 2.59640428208813  C 18.6062977070117 2.27570167890529  18.1884257123869 1.98135795052519  17.7485605230066 1.71337357747186  C 15.9099240305623 0.593111077534784  13.7941714638686 3.08791402614551E-05  11.6256361315775 3.08791402614551E-05  C 10.0641147113652 3.08791402614551E-05  8.55097920473014 0.298767704324624  7.12141728705602 0.891847861181829  C 5.74024061494752 1.46296209404149  4.49542196742621 2.28448810282442  3.42654954595958 3.33006638595738  C 2.3620611172908 4.36739545015945  1.51171944740186 5.60326242446899  0.923716935274111 6.96762470363342  C 0.312304334143315 8.38662390364814  0 9.89348613109785  0 11.4442809586672  C 0 12.9072119231077  0.299108517491812 14.4316481265825  0.892926529417717 15.9824429541519  C 1.38997421721528 17.2784329296387  2.10255574802492 18.6227479964187  3.01307678314608 19.9802425423848  C 4.45583460097315 22.1285107701095  6.43962599509989 24.369037107094  8.90287115583085 26.6403144757772  C 12.9848201934407 30.405275010571  17.0271821359771 33.0060429732824  17.1987295686031 33.1114794544338  C 17.1987295686031 33.1114794544338  18.2412110247782 33.7792430759705  18.2412110247782 33.7792430759705  C 18.7030694924153 34.0735865536424  19.2968864188224 34.0735865536424  19.7587448864595 33.7792430759705  C 19.7587448864595 33.7792430759705  20.8012263426347 33.1114794544338  20.8012263426347 33.1114794544338  C 20.9727737752606 33.0016497926614  25.0107361937307 30.405275010571  29.0970840873953 26.6403144757772  C 31.5603292481263 24.369037107094  33.5441199742415 22.1285107701095  34.9868777920685 19.9802425423848  C 35.8973988271897 18.6227479964187  36.6143772100195 17.2784329296387  37.1070262087651 15.9824429541519  C 37.700844220691 14.4316481265825  37.9999545752146 12.9072119231077  37.9999545752146 11.4442809586672  C 38.0043532274085 9.89348613109785  37.6920496816362 8.38662390364814  37.0806370805054 6.96762470363342  Z " fill-rule="evenodd" />
    </mask>
  </defs>
  <g transform="matrix(1 0 0 1 -9 -18 )">
    <path d="M 37.0806370805054 6.96762470363342  C 36.4910399830578 5.6041419088226  35.6408982573758 4.36856684242327  34.5778035513041 3.33006638595738  C 33.5139104044275 2.28846809544514  32.259550965449 1.4607248994493  30.8829354762019 0.891847861181829  C 29.4554701127765 0.299615808368958  27.9244372407016 -0.0035223953986058  26.3787152956573 3.08791402614551E-05  C 24.2101799633662 3.08791402614551E-05  22.0944287326956 0.593111077534784  20.2557922402513 1.71337357747186  C 19.815927050871 1.98135795052519  19.3980550562462 2.27570167890529  19.002176381629 2.59640428208813  C 18.6062977070117 2.27570167890529  18.1884257123869 1.98135795052519  17.7485605230066 1.71337357747186  C 15.9099240305623 0.593111077534784  13.7941714638686 3.08791402614551E-05  11.6256361315775 3.08791402614551E-05  C 10.0641147113652 3.08791402614551E-05  8.55097920473014 0.298767704324624  7.12141728705602 0.891847861181829  C 5.74024061494752 1.46296209404149  4.49542196742621 2.28448810282442  3.42654954595958 3.33006638595738  C 2.3620611172908 4.36739545015945  1.51171944740186 5.60326242446899  0.923716935274111 6.96762470363342  C 0.312304334143315 8.38662390364814  0 9.89348613109785  0 11.4442809586672  C 0 12.9072119231077  0.299108517491812 14.4316481265825  0.892926529417717 15.9824429541519  C 1.38997421721528 17.2784329296387  2.10255574802492 18.6227479964187  3.01307678314608 19.9802425423848  C 4.45583460097315 22.1285107701095  6.43962599509989 24.369037107094  8.90287115583085 26.6403144757772  C 12.9848201934407 30.405275010571  17.0271821359771 33.0060429732824  17.1987295686031 33.1114794544338  C 17.1987295686031 33.1114794544338  18.2412110247782 33.7792430759705  18.2412110247782 33.7792430759705  C 18.7030694924153 34.0735865536424  19.2968864188224 34.0735865536424  19.7587448864595 33.7792430759705  C 19.7587448864595 33.7792430759705  20.8012263426347 33.1114794544338  20.8012263426347 33.1114794544338  C 20.9727737752606 33.0016497926614  25.0107361937307 30.405275010571  29.0970840873953 26.6403144757772  C 31.5603292481263 24.369037107094  33.5441199742415 22.1285107701095  34.9868777920685 19.9802425423848  C 35.8973988271897 18.6227479964187  36.6143772100195 17.2784329296387  37.1070262087651 15.9824429541519  C 37.700844220691 14.4316481265825  37.9999545752146 12.9072119231077  37.9999545752146 11.4442809586672  C 38.0043532274085 9.89348613109785  37.6920496816362 8.38662390364814  37.0806370805054 6.96762470363342  Z " fill-rule="nonzero" fill="#ffffff" stroke="none" fill-opacity="0" transform="matrix(1 0 0 1 9 18 )" />
    <path d="M 37.0806370805054 6.96762470363342  C 36.4910399830578 5.6041419088226  35.6408982573758 4.36856684242327  34.5778035513041 3.33006638595738  C 33.5139104044275 2.28846809544514  32.259550965449 1.4607248994493  30.8829354762019 0.891847861181829  C 29.4554701127765 0.299615808368958  27.9244372407016 -0.0035223953986058  26.3787152956573 3.08791402614551E-05  C 24.2101799633662 3.08791402614551E-05  22.0944287326956 0.593111077534784  20.2557922402513 1.71337357747186  C 19.815927050871 1.98135795052519  19.3980550562462 2.27570167890529  19.002176381629 2.59640428208813  C 18.6062977070117 2.27570167890529  18.1884257123869 1.98135795052519  17.7485605230066 1.71337357747186  C 15.9099240305623 0.593111077534784  13.7941714638686 3.08791402614551E-05  11.6256361315775 3.08791402614551E-05  C 10.0641147113652 3.08791402614551E-05  8.55097920473014 0.298767704324624  7.12141728705602 0.891847861181829  C 5.74024061494752 1.46296209404149  4.49542196742621 2.28448810282442  3.42654954595958 3.33006638595738  C 2.3620611172908 4.36739545015945  1.51171944740186 5.60326242446899  0.923716935274111 6.96762470363342  C 0.312304334143315 8.38662390364814  0 9.89348613109785  0 11.4442809586672  C 0 12.9072119231077  0.299108517491812 14.4316481265825  0.892926529417717 15.9824429541519  C 1.38997421721528 17.2784329296387  2.10255574802492 18.6227479964187  3.01307678314608 19.9802425423848  C 4.45583460097315 22.1285107701095  6.43962599509989 24.369037107094  8.90287115583085 26.6403144757772  C 12.9848201934407 30.405275010571  17.0271821359771 33.0060429732824  17.1987295686031 33.1114794544338  C 17.1987295686031 33.1114794544338  18.2412110247782 33.7792430759705  18.2412110247782 33.7792430759705  C 18.7030694924153 34.0735865536424  19.2968864188224 34.0735865536424  19.7587448864595 33.7792430759705  C 19.7587448864595 33.7792430759705  20.8012263426347 33.1114794544338  20.8012263426347 33.1114794544338  C 20.9727737752606 33.0016497926614  25.0107361937307 30.405275010571  29.0970840873953 26.6403144757772  C 31.5603292481263 24.369037107094  33.5441199742415 22.1285107701095  34.9868777920685 19.9802425423848  C 35.8973988271897 18.6227479964187  36.6143772100195 17.2784329296387  37.1070262087651 15.9824429541519  C 37.700844220691 14.4316481265825  37.9999545752146 12.9072119231077  37.9999545752146 11.4442809586672  C 38.0043532274085 9.89348613109785  37.6920496816362 8.38662390364814  37.0806370805054 6.96762470363342  Z " stroke-width="6" stroke="#717378" fill="none" transform="matrix(1 0 0 1 9 18 )" mask="url(#clip4)" />
  </g>
</svg>