<?xml version="1.0" encoding="utf-8"?>
<svg version="1.1" xmlns:xlink="http://www.w3.org/1999/xlink" width="75px" height="70px" xmlns="http://www.w3.org/2000/svg">
  <g transform="matrix(1 0 0 1 10 -71 )">
    <path d="M 11.8150684931507 70  C 11.8150684931507 70  0 11.0597302504817  0 11.0597302504817  C 1.65094337234758 8.92256415188887  10.8901242687278 11.6863846089799  15.4109589041096 8.49710982658959  C 24.5843567260324 2.02563114938019  29.5799893875645 1.64187139169329  32.9716982906812 3.62192679462176  C 39.6832191780822 7.54006468491747  42.6951410019234 8.75644753663756  46.2328767123288 7.6878612716763  C 49.7706124227341 6.61927500671504  54.329445754012 0.772375169287297  58.4332191780822 3.62192679462176  C 69.1447499680193 11.0597302504817  72.7358491453406 0.94985060609145  75 0  C 75 0  58.4332191780822 70  58.4332191780822 70  L 11.8150684931507 70  Z " fill-rule="nonzero" fill="#ff0000" stroke="none" transform="matrix(1 0 0 1 -10 71 )" />
  </g>
</svg>