<?xml version="1.0" encoding="utf-8"?>
<svg version="1.1" xmlns:xlink="http://www.w3.org/1999/xlink" width="20px" height="22px" xmlns="http://www.w3.org/2000/svg">
  <g transform="matrix(1 0 0 1 -652 -34 )">
    <path d="M 18.219098457062657 21.62465920287697  C 18.219098457062657 21.62465920287697  14.934154152972326 17.518478146372292  14.934154152972326 17.518478146372292  C 13.34997714523642 19.06336123693089  11.273419933797957 19.99996705494152  8.99998369219874 19.99996705494152  C 4.029429763873528 19.99996705494152  0 15.522821605542745  0 9.99998352747076  C 0 4.477144972562401  4.029429763873528 0  8.99998369219874 0  C 13.97053762052395 0  17.99996738439748 4.477144972562401  17.99996738439748 9.99998352747076  C 17.99996738439748 12.226852303401447  17.344866795304384 14.283713653689349  16.237115048867615 15.94562288051651  C 16.237115048867615 15.94562288051651  19.780832687776464 20.37527161250022  19.780832687776464 20.37527161250022  C 20.125840912725703 20.806531964726247  20.055921453236806 21.435824369893247  19.62465926470508 21.780832651674064  C 19.193398983518534 22.12584093345488  18.564106682011893 22.055921462448485  18.219098457062657 21.62465920287697  Z M 8.99998369219874 17.99997034944737  C 12.672970696788479 17.99997034944737  15.999971008353313 14.621678108572173  15.999971008353313 9.99998352747076  C 15.999971008353313 5.378288946369346  12.672970696788479 1.999996705494152  8.99998369219874 1.999996705494152  C 5.3269962107727045 1.999996705494152  1.9999963760441641 5.378288946369346  1.9999963760441641 9.99998352747076  C 1.9999963760441641 14.621678108572173  5.3269962107727045 17.99997034944737  8.99998369219874 17.99997034944737  Z " fill-rule="nonzero" fill="#717378" stroke="none" transform="matrix(1 0 0 1 652 34 )" />
  </g>
</svg>