<?xml version="1.0" encoding="utf-8"?>
<svg version="1.1" xmlns:xlink="http://www.w3.org/1999/xlink" width="27px" height="28px" xmlns="http://www.w3.org/2000/svg">
  <defs>
    <mask fill="white" id="clip7">
      <path d="M 26.999997252630962 4.67817549042718  C 27.000627433170877 4.309798092250189  26.741441987579297 4.011301538670854  26.42203048073667 4.011301538670854  C 26.42203048073667 4.011301538670854  5.014530593175291 4.011301538670854  5.014530593175291 4.011301538670854  C 4.972848653079116 4.011301538670854  4.935307827163288 4.029341626157108  4.895876532319643 4.039294970035006  C 4.895876532319643 4.039294970035006  4.025147024945297 0.7095904535554459  4.025147024945297 0.7095904535554459  C 4.0153342142199255 0.6736132626795532  3.994448327102747 0.6469674123169098  3.980584355727715 0.6136859180009867  C 3.9568175476562324 0.27122868594738175  3.7144680091261493 0  3.411261150248118 0  C 3.4107209955115985 0  3.4095509157887802 0  3.408920735248867 0  C 3.408920735248867 0  0.576259067398966 0.01389319084865898  0.576259067398966 0.01389319084865898  C 0.2563074235107021 0.015966804092181004  -0.0011663612757237091 0.3158113538816402  0 0.6835666637210562  C 0.0011743092771415093 1.050699885222897  0.2598184323583497 1.3472265006397097  0.5785997399640644 1.3472265006397097  C 0.5791398947005839 1.3472265006397097  0.5803102319892497 1.3472265006397097  0.5809404125291628 1.3472265006397097  C 0.5809404125291628 1.3472265006397097  2.980307812683158 1.3351996242425694  2.980307812683158 1.3351996242425694  C 2.980307812683158 1.3351996242425694  8.51905427620868 22.505443691417852  8.51905427620868 22.505443691417852  C 7.968816657087336 23.084500206569402  7.617626010624789 23.90938380504911  7.617626010624789 24.834941101729104  C 7.617626010624789 26.58278972319474  8.847648370392967 28  10.365843298820952 28  C 11.883498025811837 28  13.114060587017114 26.582686099483734  13.114060587017114 24.834941101729104  C 13.114060587017114 24.379160910107732  13.027276221640538 23.948678029970868  12.87684312848407 23.557594555788768  C 12.87684312848407 23.557594555788768  20.872843671445597 23.557594555788768  20.872843671445597 23.557594555788768  C 20.722410578289132 23.948781703120666  20.635624839228036 24.379160910107732  20.635624839228036 24.834941101729104  C 20.635624839228036 26.58278972319474  21.865646512153955 28  23.38384144058194 28  C 24.901496167572827 28  26.13205941562036 26.582686099483734  26.13205941562036 24.834941101729104  C 26.13205941562036 23.087196103974474  24.90140619123683 21.669880621416816  23.38384144058194 21.669880621416816  C 22.807586365453606 21.669880621416816  22.273555089938686 21.87579082293951  21.831528481466044 22.22498730411785  C 21.831528481466044 22.22498730411785  11.917618460447654 22.22498730411785  11.917618460447654 22.22498730411785  C 11.475591851975013 21.87579082293951  10.942098373949285 21.669880621416816  10.365843298820952 21.669880621416816  C 10.07947126568061 21.669880621416816  9.808673960297616 21.734473158958657  9.548859541673721 21.827785754530908  C 9.548859541673721 21.827785754530908  8.722602727180963 18.670709837110756  8.722602727180963 18.670709837110756  C 8.722602727180963 18.670709837110756  23.299398305829797 18.657335259205052  23.299398305829797 18.657335259205052  C 23.554531400787315 18.657335259205052  23.764560766537333 18.463452725100193  23.840992659029933 18.198859664566545  C 23.860708306451755 18.156868995323062  23.882043649996962 18.11622674445065  23.893656976119463 18.06822259683958  C 23.893656976119463 18.06822259683958  26.979202416382297 4.964022683761453  26.979202416382297 4.964022683761453  C 26.99891806380412 4.880767112941709  27.0011679618474 4.797408369539951  26.993065640548075 4.716848492190253  C 26.993605795284594 4.702851601927438  26.999997252630962 4.691550295442345  26.999997252630962 4.67817549042718  Z M 21.793356536051995 24.83442219215339  C 21.79344656184491 23.823535713341332  22.50680921106856 23.001970545553412  23.38447058809164 23.001970545553412  C 24.262131965114722 23.001970545553412  24.975587387500326 23.823535713341332  24.975587387500326 24.83442219215339  C 24.975587387500326 25.845204948376857  24.262222027306 26.666873838753368  23.38447058809164 26.666873838753368  C 22.506719148877284 26.666873838753368  21.793356536051995 25.845308670965448  21.793356536051995 24.83442219215339  Z M 8.775357707448748 24.83442219215339  C 8.775357707448748 23.823535713341332  9.488722380800814 23.001970545553412  10.366473820015173 23.001970545553412  C 11.244225259229532 23.001970545553412  11.9575899325816 23.823535713341332  11.9575899325816 24.83442219215339  C 11.9575899325816 25.845204948376857  11.244225259229532 26.666873838753368  10.366473820015173 26.666873838753368  C 9.488722380800814 26.666873838753368  8.775357707448748 25.845308670965448  8.775357707448748 24.83442219215339  Z M 25.691293506115034 5.344634156318797  L 22.870154862069864 17.325349749800154  L 8.37501315175734 17.33872432770586  L 5.23734428268433 5.344634156318797  L 25.691293506115034 5.344634156318797  Z " fill-rule="evenodd" />
    </mask>
  </defs>
  <g transform="matrix(1 0 0 1 -990 -31 )">
    <path d="M 26.999997252630962 4.67817549042718  C 27.000627433170877 4.309798092250189  26.741441987579297 4.011301538670854  26.42203048073667 4.011301538670854  C 26.42203048073667 4.011301538670854  5.014530593175291 4.011301538670854  5.014530593175291 4.011301538670854  C 4.972848653079116 4.011301538670854  4.935307827163288 4.029341626157108  4.895876532319643 4.039294970035006  C 4.895876532319643 4.039294970035006  4.025147024945297 0.7095904535554459  4.025147024945297 0.7095904535554459  C 4.0153342142199255 0.6736132626795532  3.994448327102747 0.6469674123169098  3.980584355727715 0.6136859180009867  C 3.9568175476562324 0.27122868594738175  3.7144680091261493 0  3.411261150248118 0  C 3.4107209955115985 0  3.4095509157887802 0  3.408920735248867 0  C 3.408920735248867 0  0.576259067398966 0.01389319084865898  0.576259067398966 0.01389319084865898  C 0.2563074235107021 0.015966804092181004  -0.0011663612757237091 0.3158113538816402  0 0.6835666637210562  C 0.0011743092771415093 1.050699885222897  0.2598184323583497 1.3472265006397097  0.5785997399640644 1.3472265006397097  C 0.5791398947005839 1.3472265006397097  0.5803102319892497 1.3472265006397097  0.5809404125291628 1.3472265006397097  C 0.5809404125291628 1.3472265006397097  2.980307812683158 1.3351996242425694  2.980307812683158 1.3351996242425694  C 2.980307812683158 1.3351996242425694  8.51905427620868 22.505443691417852  8.51905427620868 22.505443691417852  C 7.968816657087336 23.084500206569402  7.617626010624789 23.90938380504911  7.617626010624789 24.834941101729104  C 7.617626010624789 26.58278972319474  8.847648370392967 28  10.365843298820952 28  C 11.883498025811837 28  13.114060587017114 26.582686099483734  13.114060587017114 24.834941101729104  C 13.114060587017114 24.379160910107732  13.027276221640538 23.948678029970868  12.87684312848407 23.557594555788768  C 12.87684312848407 23.557594555788768  20.872843671445597 23.557594555788768  20.872843671445597 23.557594555788768  C 20.722410578289132 23.948781703120666  20.635624839228036 24.379160910107732  20.635624839228036 24.834941101729104  C 20.635624839228036 26.58278972319474  21.865646512153955 28  23.38384144058194 28  C 24.901496167572827 28  26.13205941562036 26.582686099483734  26.13205941562036 24.834941101729104  C 26.13205941562036 23.087196103974474  24.90140619123683 21.669880621416816  23.38384144058194 21.669880621416816  C 22.807586365453606 21.669880621416816  22.273555089938686 21.87579082293951  21.831528481466044 22.22498730411785  C 21.831528481466044 22.22498730411785  11.917618460447654 22.22498730411785  11.917618460447654 22.22498730411785  C 11.475591851975013 21.87579082293951  10.942098373949285 21.669880621416816  10.365843298820952 21.669880621416816  C 10.07947126568061 21.669880621416816  9.808673960297616 21.734473158958657  9.548859541673721 21.827785754530908  C 9.548859541673721 21.827785754530908  8.722602727180963 18.670709837110756  8.722602727180963 18.670709837110756  C 8.722602727180963 18.670709837110756  23.299398305829797 18.657335259205052  23.299398305829797 18.657335259205052  C 23.554531400787315 18.657335259205052  23.764560766537333 18.463452725100193  23.840992659029933 18.198859664566545  C 23.860708306451755 18.156868995323062  23.882043649996962 18.11622674445065  23.893656976119463 18.06822259683958  C 23.893656976119463 18.06822259683958  26.979202416382297 4.964022683761453  26.979202416382297 4.964022683761453  C 26.99891806380412 4.880767112941709  27.0011679618474 4.797408369539951  26.993065640548075 4.716848492190253  C 26.993605795284594 4.702851601927438  26.999997252630962 4.691550295442345  26.999997252630962 4.67817549042718  Z M 21.793356536051995 24.83442219215339  C 21.79344656184491 23.823535713341332  22.50680921106856 23.001970545553412  23.38447058809164 23.001970545553412  C 24.262131965114722 23.001970545553412  24.975587387500326 23.823535713341332  24.975587387500326 24.83442219215339  C 24.975587387500326 25.845204948376857  24.262222027306 26.666873838753368  23.38447058809164 26.666873838753368  C 22.506719148877284 26.666873838753368  21.793356536051995 25.845308670965448  21.793356536051995 24.83442219215339  Z M 8.775357707448748 24.83442219215339  C 8.775357707448748 23.823535713341332  9.488722380800814 23.001970545553412  10.366473820015173 23.001970545553412  C 11.244225259229532 23.001970545553412  11.9575899325816 23.823535713341332  11.9575899325816 24.83442219215339  C 11.9575899325816 25.845204948376857  11.244225259229532 26.666873838753368  10.366473820015173 26.666873838753368  C 9.488722380800814 26.666873838753368  8.775357707448748 25.845308670965448  8.775357707448748 24.83442219215339  Z M 25.691293506115034 5.344634156318797  L 22.870154862069864 17.325349749800154  L 8.37501315175734 17.33872432770586  L 5.23734428268433 5.344634156318797  L 25.691293506115034 5.344634156318797  Z " fill-rule="nonzero" fill="#717378" stroke="none" transform="matrix(1 0 0 1 990 31 )" />
    <path d="M 26.999997252630962 4.67817549042718  C 27.000627433170877 4.309798092250189  26.741441987579297 4.011301538670854  26.42203048073667 4.011301538670854  C 26.42203048073667 4.011301538670854  5.014530593175291 4.011301538670854  5.014530593175291 4.011301538670854  C 4.972848653079116 4.011301538670854  4.935307827163288 4.029341626157108  4.895876532319643 4.039294970035006  C 4.895876532319643 4.039294970035006  4.025147024945297 0.7095904535554459  4.025147024945297 0.7095904535554459  C 4.0153342142199255 0.6736132626795532  3.994448327102747 0.6469674123169098  3.980584355727715 0.6136859180009867  C 3.9568175476562324 0.27122868594738175  3.7144680091261493 0  3.411261150248118 0  C 3.4107209955115985 0  3.4095509157887802 0  3.408920735248867 0  C 3.408920735248867 0  0.576259067398966 0.01389319084865898  0.576259067398966 0.01389319084865898  C 0.2563074235107021 0.015966804092181004  -0.0011663612757237091 0.3158113538816402  0 0.6835666637210562  C 0.0011743092771415093 1.050699885222897  0.2598184323583497 1.3472265006397097  0.5785997399640644 1.3472265006397097  C 0.5791398947005839 1.3472265006397097  0.5803102319892497 1.3472265006397097  0.5809404125291628 1.3472265006397097  C 0.5809404125291628 1.3472265006397097  2.980307812683158 1.3351996242425694  2.980307812683158 1.3351996242425694  C 2.980307812683158 1.3351996242425694  8.51905427620868 22.505443691417852  8.51905427620868 22.505443691417852  C 7.968816657087336 23.084500206569402  7.617626010624789 23.90938380504911  7.617626010624789 24.834941101729104  C 7.617626010624789 26.58278972319474  8.847648370392967 28  10.365843298820952 28  C 11.883498025811837 28  13.114060587017114 26.582686099483734  13.114060587017114 24.834941101729104  C 13.114060587017114 24.379160910107732  13.027276221640538 23.948678029970868  12.87684312848407 23.557594555788768  C 12.87684312848407 23.557594555788768  20.872843671445597 23.557594555788768  20.872843671445597 23.557594555788768  C 20.722410578289132 23.948781703120666  20.635624839228036 24.379160910107732  20.635624839228036 24.834941101729104  C 20.635624839228036 26.58278972319474  21.865646512153955 28  23.38384144058194 28  C 24.901496167572827 28  26.13205941562036 26.582686099483734  26.13205941562036 24.834941101729104  C 26.13205941562036 23.087196103974474  24.90140619123683 21.669880621416816  23.38384144058194 21.669880621416816  C 22.807586365453606 21.669880621416816  22.273555089938686 21.87579082293951  21.831528481466044 22.22498730411785  C 21.831528481466044 22.22498730411785  11.917618460447654 22.22498730411785  11.917618460447654 22.22498730411785  C 11.475591851975013 21.87579082293951  10.942098373949285 21.669880621416816  10.365843298820952 21.669880621416816  C 10.07947126568061 21.669880621416816  9.808673960297616 21.734473158958657  9.548859541673721 21.827785754530908  C 9.548859541673721 21.827785754530908  8.722602727180963 18.670709837110756  8.722602727180963 18.670709837110756  C 8.722602727180963 18.670709837110756  23.299398305829797 18.657335259205052  23.299398305829797 18.657335259205052  C 23.554531400787315 18.657335259205052  23.764560766537333 18.463452725100193  23.840992659029933 18.198859664566545  C 23.860708306451755 18.156868995323062  23.882043649996962 18.11622674445065  23.893656976119463 18.06822259683958  C 23.893656976119463 18.06822259683958  26.979202416382297 4.964022683761453  26.979202416382297 4.964022683761453  C 26.99891806380412 4.880767112941709  27.0011679618474 4.797408369539951  26.993065640548075 4.716848492190253  C 26.993605795284594 4.702851601927438  26.999997252630962 4.691550295442345  26.999997252630962 4.67817549042718  Z " stroke-width="40" stroke="#717378" fill="none" transform="matrix(1 0 0 1 990 31 )" mask="url(#clip7)" />
    <path d="M 21.793356536051995 24.83442219215339  C 21.79344656184491 23.823535713341332  22.50680921106856 23.001970545553412  23.38447058809164 23.001970545553412  C 24.262131965114722 23.001970545553412  24.975587387500326 23.823535713341332  24.975587387500326 24.83442219215339  C 24.975587387500326 25.845204948376857  24.262222027306 26.666873838753368  23.38447058809164 26.666873838753368  C 22.506719148877284 26.666873838753368  21.793356536051995 25.845308670965448  21.793356536051995 24.83442219215339  Z " stroke-width="40" stroke="#717378" fill="none" transform="matrix(1 0 0 1 990 31 )" mask="url(#clip7)" />
    <path d="M 8.775357707448748 24.83442219215339  C 8.775357707448748 23.823535713341332  9.488722380800814 23.001970545553412  10.366473820015173 23.001970545553412  C 11.244225259229532 23.001970545553412  11.9575899325816 23.823535713341332  11.9575899325816 24.83442219215339  C 11.9575899325816 25.845204948376857  11.244225259229532 26.666873838753368  10.366473820015173 26.666873838753368  C 9.488722380800814 26.666873838753368  8.775357707448748 25.845308670965448  8.775357707448748 24.83442219215339  Z " stroke-width="40" stroke="#717378" fill="none" transform="matrix(1 0 0 1 990 31 )" mask="url(#clip7)" />
    <path d="M 25.691293506115034 5.344634156318797  L 22.870154862069864 17.325349749800154  L 8.37501315175734 17.33872432770586  L 5.23734428268433 5.344634156318797  L 25.691293506115034 5.344634156318797  Z " stroke-width="40" stroke="#717378" fill="none" transform="matrix(1 0 0 1 990 31 )" mask="url(#clip7)" />
  </g>
</svg>