<?xml version="1.0" encoding="utf-8"?>
<!-- Generator: Adobe Illustrator 21.1.0, SVG Export Plug-In . SVG Version: 6.00 Build 0)  -->
<svg version="1.1" id="Icons" xmlns="http://www.w3.org/2000/svg" xmlns:xlink="http://www.w3.org/1999/xlink" x="0px" y="0px"
	 viewBox="0 0 48 48" style="enable-background:new 0 0 48 48;" xml:space="preserve">
<style type="text/css">
	.st0{opacity:0.15;fill:#45413C;}
	.st1{fill:#FFE500;}
	.st2{fill:#EBCB00;}
	.st3{fill:none;stroke:#45413C;stroke-linecap:round;stroke-linejoin:round;stroke-miterlimit:10;}
	.st4{fill:#FFAA54;}
	.st5{fill:#FF8A14;}
	.st6{fill:#FFB0CA;stroke:#45413C;stroke-linecap:round;stroke-linejoin:round;stroke-miterlimit:10;}
	.st7{fill:#FF87AF;stroke:#45413C;stroke-linecap:round;stroke-linejoin:round;stroke-miterlimit:10;}
	.st8{fill:#FFCC99;}
	.st9{fill:#FFFFFF;}
	.st10{fill:#F0F0F0;}
	.st11{fill:#BF8256;}
	.st12{fill:#915E3A;}
	.st13{fill:#DEA47A;}
	.st14{fill:#F0D5A8;}
	.st15{fill:#DEBB7E;}
	.st16{fill:#F7E5C6;}
	.st17{fill:#FF8A14;stroke:#45413C;stroke-linecap:round;stroke-linejoin:round;stroke-miterlimit:10;}
	.st18{fill:#FFF5E3;}
	.st19{fill:#FFF48C;}
	.st20{fill:#FFFACF;}
	.st21{fill:#FFFCE5;}
	.st22{fill:#FF87AF;}
	.st23{fill:#FFB0CA;}
	.st24{fill:#FFE500;stroke:#45413C;stroke-linecap:round;stroke-linejoin:round;stroke-miterlimit:10;}
	.st25{fill:#9CEB60;stroke:#45413C;stroke-linecap:round;stroke-linejoin:round;stroke-miterlimit:10;}
	.st26{fill:#FFFACF;stroke:#45413C;stroke-linecap:round;stroke-linejoin:round;stroke-miterlimit:10;}
	.st27{fill:#00F5BC;stroke:#45413C;stroke-linecap:round;stroke-linejoin:round;stroke-miterlimit:10;}
	.st28{fill:#BF8256;stroke:#45413C;stroke-linecap:round;stroke-linejoin:round;stroke-miterlimit:10;}
	.st29{fill:#FFE3CF;stroke:#45413C;stroke-linecap:round;stroke-linejoin:round;stroke-miterlimit:10;}
	.st30{fill:#FF6242;}
	.st31{fill:#FF866E;}
	.st32{fill:none;stroke:#E04122;stroke-linecap:round;stroke-linejoin:round;stroke-miterlimit:10;}
	.st33{fill:#FFFEF2;stroke:#45413C;stroke-linecap:round;stroke-linejoin:round;stroke-miterlimit:10;}
	.st34{fill:#FF6242;stroke:#45413C;stroke-linecap:round;stroke-linejoin:round;stroke-miterlimit:10;}
	.st35{fill:#FFA694;}
	.st36{fill:#FFFFFF;stroke:#45413C;stroke-linecap:round;stroke-linejoin:round;stroke-miterlimit:10;}
	.st37{fill:#FFFEF2;}
	.st38{fill:#FF6196;}
	.st39{fill:#B89558;}
	.st40{fill:none;stroke:#915E3A;stroke-linecap:round;stroke-linejoin:round;stroke-miterlimit:10;}
	.st41{fill:#DEBB7E;stroke:#45413C;stroke-linecap:round;stroke-linejoin:round;stroke-miterlimit:10;}
	.st42{fill:#6DD627;stroke:#45413C;stroke-linecap:round;stroke-linejoin:round;stroke-miterlimit:10;}
	.st43{fill:#E5F8FF;}
	.st44{fill:#E8F4FA;}
	.st45{fill:#E8F4FA;stroke:#45413C;stroke-linecap:round;stroke-linejoin:round;stroke-miterlimit:10;}
	.st46{fill:#FFCCDD;}
	.st47{fill:#E5F8FF;stroke:#45413C;stroke-linecap:round;stroke-linejoin:round;stroke-miterlimit:10;}
	.st48{fill:#00B8F0;stroke:#45413C;stroke-linecap:round;stroke-linejoin:round;stroke-miterlimit:10;}
	.st49{fill:#00B8F0;}
	.st50{fill:#4ACFFF;}
	.st51{fill:#E04122;}
	.st52{fill:#E04122;stroke:#45413C;stroke-linecap:round;stroke-linejoin:round;stroke-miterlimit:10;}
	.st53{fill:#87898C;}
	.st54{fill:#BDBEC0;}
	.st55{fill:#656769;}
	.st56{fill:#525252;}
	.st57{fill:#FFF48C;stroke:#45413C;stroke-linecap:round;stroke-linejoin:round;stroke-miterlimit:10;}
	.st58{fill:#6DD627;}
	.st59{fill:#EB6D00;}
	.st60{fill:#46B000;}
	.st61{fill:#80DDFF;}
	.st62{fill:#DAEDF7;}
	.st63{fill:#BF8DF2;stroke:#45413C;stroke-linecap:round;stroke-linejoin:round;stroke-miterlimit:10;}
	.st64{fill:#9F5AE5;stroke:#45413C;stroke-linecap:round;stroke-linejoin:round;stroke-miterlimit:10;}
	.st65{fill:#C8FFA1;}
	.st66{fill:#E4FFD1;}
	.st67{fill:#9CEB60;}
	.st68{fill:#E5FEFF;}
	.st69{fill:#B8ECFF;}
	.st70{fill:#E0E0E0;stroke:#45413C;stroke-linecap:round;stroke-linejoin:round;stroke-miterlimit:10;}
	.st71{fill:#E0E0E0;}
	.st72{fill:none;stroke:#4F4B45;stroke-linejoin:round;stroke-miterlimit:10;}
	.st73{fill:none;stroke:#4F4B45;stroke-linecap:round;stroke-linejoin:round;stroke-miterlimit:10;}
	.st74{fill:#E0366F;stroke:#45413C;stroke-linecap:round;stroke-linejoin:round;stroke-miterlimit:10;}
	.st75{fill:none;stroke:#45413C;stroke-miterlimit:10;}
	.st76{fill:#FF866E;stroke:#45413C;stroke-linecap:round;stroke-linejoin:round;stroke-miterlimit:10;}
	.st77{fill:#45413C;stroke:#45413C;stroke-linecap:round;stroke-linejoin:round;stroke-miterlimit:10;}
	.st78{fill:#9F5AE5;}
	.st79{fill:#803EC2;}
	.st80{fill:#803EC2;stroke:#45413C;stroke-linecap:round;stroke-linejoin:round;stroke-miterlimit:10;}
	.st81{fill:#BF8DF2;}
	.st82{fill:#FFAA54;stroke:#45413C;stroke-linecap:round;stroke-linejoin:round;stroke-miterlimit:10;}
	.st83{fill:none;stroke:#45413C;stroke-linejoin:round;stroke-miterlimit:10;}
	.st84{fill:#FFCCDD;stroke:#45413C;stroke-linecap:round;stroke-linejoin:round;stroke-miterlimit:10;}
	.st85{fill:#FF6196;stroke:#45413C;stroke-linecap:round;stroke-linejoin:round;stroke-miterlimit:10;}
	.st86{fill:#FFE5EE;}
	.st87{fill:#F7E5C6;stroke:#45413C;stroke-linecap:round;stroke-linejoin:round;stroke-miterlimit:10;}
	.st88{fill:#E5FFF9;}
	.st89{fill:none;stroke:#45413C;stroke-width:1.0064;stroke-linecap:round;stroke-linejoin:round;stroke-miterlimit:10;}
	.st90{fill:#4AEFF7;}
	.st91{fill:#A6FBFF;}
	.st92{fill:#E5FEFF;stroke:#45413C;stroke-linecap:round;stroke-linejoin:round;stroke-miterlimit:10;}
	.st93{fill:#46B000;stroke:#45413C;stroke-linecap:round;stroke-linejoin:round;stroke-miterlimit:10;}
	.st94{fill:#FFFFFF;stroke:#45413C;stroke-linejoin:round;stroke-miterlimit:10;}
	.st95{fill:#FFFFFF;stroke:#45413C;stroke-miterlimit:10;}
	.st96{fill:#009FD9;}
	.st97{fill:#00DFEB;}
	.st98{fill:#C0DCEB;stroke:#45413C;stroke-linecap:round;stroke-linejoin:round;stroke-miterlimit:10;}
	.st99{fill:#00DFEB;stroke:#45413C;stroke-linecap:round;stroke-linejoin:round;stroke-miterlimit:10;}
	.st100{fill:#FFE5EE;stroke:#45413C;stroke-linecap:round;stroke-linejoin:round;stroke-miterlimit:10;}
	.st101{fill:#8CA4B8;}
	.st102{fill:#ADC4D9;}
	.st103{fill:#656769;stroke:#45413C;stroke-linecap:round;stroke-linejoin:round;stroke-miterlimit:10;}
	.st104{fill:#F0F0F0;stroke:#45413C;stroke-linecap:round;stroke-linejoin:round;stroke-miterlimit:10;}
	.st105{fill:#C0DCEB;}
	.st106{fill:#45413C;}
	.st107{fill:#FFCABF;}
	.st108{fill:#87898C;stroke:#45413C;stroke-linecap:round;stroke-linejoin:round;stroke-miterlimit:10;}
	.st109{fill:#EBCB00;stroke:#45413C;stroke-linecap:round;stroke-linejoin:round;stroke-miterlimit:10;}
</style>
<g id="XMLID_14665_">
	<rect id="XMLID_14689_" x="13.6" y="19.2" class="st15" width="4.3" height="22.3"/>
	<path id="XMLID_14688_" class="st39" d="M13.6,34.8c0.4,0.2,0.8,0.3,1.3,0.3c1.2,0,2.3-0.8,2.8-1.8c0.1,0,0.2,0,0.2,0.1V19.2h-4.3
		V34.8z"/>
	<rect id="XMLID_14687_" x="13.6" y="19.2" class="st3" width="4.3" height="22.3"/>
	<path id="XMLID_14686_" class="st58" d="M15.2,9.4c-5.5,0-10,4.3-10.4,9.7c-2.5,1-4.2,3.4-4.2,6.2c0,3.7,3,6.6,6.6,6.6
		c1.9,0,3.6-0.8,4.8-2.1c1,0.3,2.1,0.5,3.2,0.5c5.8,0,10.4-4.7,10.4-10.4S20.9,9.4,15.2,9.4z"/>
	<path id="XMLID_14685_" class="st67" d="M4.7,21.9c0.4-5.4,4.9-9.7,10.4-9.7c5.3,0,9.7,3.9,10.3,9.1c0.1-0.5,0.1-0.9,0.1-1.4
		c0-5.8-4.7-10.4-10.4-10.4c-5.5,0-10,4.3-10.4,9.7c-2.5,1-4.2,3.4-4.2,6.2c0,0.5,0.1,1,0.2,1.4C1.1,24.5,2.7,22.7,4.7,21.9z"/>
	<path id="XMLID_14684_" class="st3" d="M15.2,9.4c-5.5,0-10,4.3-10.4,9.7c-2.5,1-4.2,3.4-4.2,6.2c0,3.7,3,6.6,6.6,6.6
		c1.9,0,3.6-0.8,4.8-2.1c1,0.3,2.1,0.5,3.2,0.5c5.8,0,10.4-4.7,10.4-10.4S20.9,9.4,15.2,9.4z"/>
	<path class="st30" d="M40.7,24.5L29,17.7c-0.5-0.3-1.2-0.3-1.7,0l-11.7,6.8c-0.7,0.4-0.9,1.2-0.6,1.9c0.4,0.8,1.3,1.1,2.1,0.6
		l11-6.4l11,6.4c0.8,0.4,1.7,0.1,2.1-0.6C41.6,25.7,41.4,24.9,40.7,24.5z"/>
	<path id="XMLID_14683_" class="st31" d="M15.1,26.6c0.1-0.2,0.3-0.3,0.5-0.4l11.7-6.8c0.5-0.3,1.2-0.3,1.7,0l11.7,6.8
		c0.2,0.1,0.4,0.3,0.5,0.4c0-0.1,0.1-0.1,0.1-0.2c0.3-0.7,0.1-1.5-0.6-1.9L29,17.7c-0.5-0.3-1.2-0.3-1.7,0l-11.7,6.8
		c-0.7,0.4-0.9,1.2-0.6,1.9C15,26.5,15.1,26.6,15.1,26.6z"/>
	<path class="st3" d="M40.7,24.5L29,17.7c-0.5-0.3-1.2-0.3-1.7,0l-11.7,6.8c-0.7,0.4-0.9,1.2-0.6,1.9c0.4,0.8,1.3,1.1,2.1,0.6
		l11-6.4l11,6.4c0.8,0.4,1.7,0.1,2.1-0.6C41.6,25.7,41.4,24.9,40.7,24.5z"/>
	<ellipse id="XMLID_14682_" class="st0" cx="26.4" cy="42.5" rx="21" ry="1.5"/>
	<polygon id="XMLID_14681_" class="st20" points="38.4,41.5 17.8,41.5 17.8,26.7 28.1,20.6 38.4,26.7 	"/>
	<polygon id="XMLID_14680_" class="st19" points="28.1,20.6 17.8,26.7 17.8,29.1 28.1,23 38.4,29.1 38.4,26.7 	"/>
	<polygon id="XMLID_14679_" class="st3" points="38.4,41.5 17.8,41.5 17.8,26.7 28.1,20.6 38.4,26.7 	"/>
	<path id="XMLID_14678_" class="st70" d="M29.4,41.5h-9.9v-1.3c0-0.5,0.4-0.9,0.9-0.9h8.2c0.5,0,0.9,0.4,0.9,0.9V41.5z"/>
	<path id="XMLID_14677_" class="st11" d="M27.3,29.1h-5.6c-0.5,0-0.9,0.4-0.9,0.9v9.4h7.3v-9.4C28.1,29.4,27.8,29.1,27.3,29.1z"/>
	<path id="XMLID_14676_" class="st12" d="M27.3,29.1h-5.6c-0.5,0-0.9,0.4-0.9,0.9v1.7c0-0.5,0.4-0.9,0.9-0.9h5.6
		c0.5,0,0.9,0.4,0.9,0.9v-1.7C28.1,29.4,27.8,29.1,27.3,29.1z"/>
	<path id="XMLID_14675_" class="st3" d="M27.3,29.1h-5.6c-0.5,0-0.9,0.4-0.9,0.9v9.4h7.3v-9.4C28.1,29.4,27.8,29.1,27.3,29.1z"/>
	<path id="XMLID_14674_" class="st49" d="M35,34.2h-3.4c-0.5,0-0.9-0.4-0.9-0.9v-3.4c0-0.5,0.4-0.9,0.9-0.9H35
		c0.5,0,0.9,0.4,0.9,0.9v3.4C35.9,33.8,35.5,34.2,35,34.2z"/>
	<path id="XMLID_14673_" class="st50" d="M35,29.1h-3.4c-0.5,0-0.9,0.4-0.9,0.9v3.4c0,0.5,0.4,0.9,0.9,0.9h0.6l3-5.1
		C35.1,29.1,35.1,29.1,35,29.1z"/>
	<path id="XMLID_14672_" class="st49" d="M25.6,34.6h-2.1c-0.5,0-0.9-0.4-0.9-0.9v-2.1c0-0.5,0.4-0.9,0.9-0.9h2.1
		c0.5,0,0.9,0.4,0.9,0.9v2.1C26.4,34.2,26,34.6,25.6,34.6z"/>
	<path id="XMLID_14671_" class="st50" d="M25.6,30.8h-2.1c-0.5,0-0.9,0.4-0.9,0.9v2.1c0,0.5,0.4,0.9,0.9,0.9h0.2l2.2-3.8
		C25.8,30.8,25.7,30.8,25.6,30.8z"/>
	<path id="XMLID_14670_" class="st3" d="M35,34.2h-3.4c-0.5,0-0.9-0.4-0.9-0.9v-3.4c0-0.5,0.4-0.9,0.9-0.9H35c0.5,0,0.9,0.4,0.9,0.9
		v3.4C35.9,33.8,35.5,34.2,35,34.2z"/>
	<path id="XMLID_14669_" class="st3" d="M25.6,34.6h-2.1c-0.5,0-0.9-0.4-0.9-0.9v-2.1c0-0.5,0.4-0.9,0.9-0.9h2.1
		c0.5,0,0.9,0.4,0.9,0.9v2.1C26.4,34.2,26,34.6,25.6,34.6z"/>
	<path id="XMLID_14668_" class="st58" d="M46.6,41.5c0.5-0.4,0.9-1,0.9-1.7c0-1.2-1-2.1-2.1-2.1c-0.5,0-1,0.2-1.4,0.5
		c-0.4-1.8-1.9-3.1-3.8-3.1c-2.1,0-3.9,1.7-3.9,3.9c0,1,0.4,1.9,1,2.6H46.6z"/>
	<path id="XMLID_14667_" class="st67" d="M40.2,36.8c1.9,0,3.4,1.3,3.8,3.1c0.4-0.3,0.8-0.5,1.4-0.5c0.9,0,1.6,0.5,2,1.3
		c0.1-0.3,0.2-0.5,0.2-0.9c0-1.2-1-2.1-2.1-2.1c-0.5,0-1,0.2-1.4,0.5c-0.4-1.8-1.9-3.1-3.8-3.1c-2.1,0-3.9,1.7-3.9,3.9
		c0,0.3,0,0.6,0.1,0.9C36.8,38.1,38.4,36.8,40.2,36.8z"/>
	<path id="XMLID_14666_" class="st3" d="M46.6,41.5c0.5-0.4,0.9-1,0.9-1.7c0-1.2-1-2.1-2.1-2.1c-0.5,0-1,0.2-1.4,0.5
		c-0.4-1.8-1.9-3.1-3.8-3.1c-2.1,0-3.9,1.7-3.9,3.9c0,1,0.4,1.9,1,2.6H46.6z"/>
</g>
</svg>
